<mxfile host="www.draw.io" modified="2020-01-08T07:51:10.263Z" agent="Mozilla/5.0 (Macintosh; Intel Mac OS X 10_15_0) AppleWebKit/537.36 (KHTML, like Gecko) Chrome/79.0.3945.88 Safari/537.36" etag="bKAy2TtwTjO5jk3_b5Ua" version="12.4.9" type="github">
  <diagram id="4lKn0QCqxNmCEj1VRbfb" name="第 1 页">
    <mxGraphModel dx="772" dy="421" grid="1" gridSize="10" guides="1" tooltips="1" connect="1" arrows="1" fold="1" page="1" pageScale="1" pageWidth="3300" pageHeight="4681" math="0" shadow="0">
      <root>
        <mxCell id="0"/>
        <mxCell id="1" parent="0"/>
        <mxCell id="2ZjtcMZqPL4KML54FWka-1" value="浏览器" style="rounded=0;whiteSpace=wrap;html=1;" vertex="1" parent="1">
          <mxGeometry x="30" y="20" width="120" height="40" as="geometry"/>
        </mxCell>
        <mxCell id="2ZjtcMZqPL4KML54FWka-2" value="静态服务器" style="rounded=0;whiteSpace=wrap;html=1;" vertex="1" parent="1">
          <mxGeometry x="320" y="20" width="120" height="40" as="geometry"/>
        </mxCell>
        <mxCell id="2ZjtcMZqPL4KML54FWka-3" value="后端服务器" style="rounded=0;whiteSpace=wrap;html=1;" vertex="1" parent="1">
          <mxGeometry x="590" y="20" width="120" height="40" as="geometry"/>
        </mxCell>
        <mxCell id="2ZjtcMZqPL4KML54FWka-4" value="" style="endArrow=none;dashed=1;html=1;" edge="1" parent="1">
          <mxGeometry width="50" height="50" relative="1" as="geometry">
            <mxPoint x="80" y="100" as="sourcePoint"/>
            <mxPoint x="80" y="60" as="targetPoint"/>
          </mxGeometry>
        </mxCell>
        <mxCell id="2ZjtcMZqPL4KML54FWka-5" value="" style="rounded=0;whiteSpace=wrap;html=1;" vertex="1" parent="1">
          <mxGeometry x="65" y="100" width="36" height="260" as="geometry"/>
        </mxCell>
        <mxCell id="2ZjtcMZqPL4KML54FWka-6" value="" style="rounded=0;whiteSpace=wrap;html=1;" vertex="1" parent="1">
          <mxGeometry x="365" y="100" width="30" height="70" as="geometry"/>
        </mxCell>
        <mxCell id="2ZjtcMZqPL4KML54FWka-8" value="" style="rounded=0;whiteSpace=wrap;html=1;" vertex="1" parent="1">
          <mxGeometry x="635" y="240" width="30" height="80" as="geometry"/>
        </mxCell>
        <mxCell id="2ZjtcMZqPL4KML54FWka-10" value="" style="endArrow=none;dashed=1;html=1;exitX=0.5;exitY=0;exitDx=0;exitDy=0;" edge="1" parent="1" source="2ZjtcMZqPL4KML54FWka-6">
          <mxGeometry width="50" height="50" relative="1" as="geometry">
            <mxPoint x="330" y="110" as="sourcePoint"/>
            <mxPoint x="380" y="60" as="targetPoint"/>
          </mxGeometry>
        </mxCell>
        <mxCell id="2ZjtcMZqPL4KML54FWka-12" value="" style="endArrow=none;dashed=1;html=1;exitX=0.5;exitY=0;exitDx=0;exitDy=0;" edge="1" parent="1" source="2ZjtcMZqPL4KML54FWka-8">
          <mxGeometry width="50" height="50" relative="1" as="geometry">
            <mxPoint x="600" y="110" as="sourcePoint"/>
            <mxPoint x="650" y="60" as="targetPoint"/>
          </mxGeometry>
        </mxCell>
        <mxCell id="2ZjtcMZqPL4KML54FWka-13" value="请求" style="endArrow=classic;html=1;entryX=0;entryY=0.25;entryDx=0;entryDy=0;" edge="1" parent="1" target="2ZjtcMZqPL4KML54FWka-6">
          <mxGeometry width="50" height="50" relative="1" as="geometry">
            <mxPoint x="98" y="118" as="sourcePoint"/>
            <mxPoint x="146" y="80" as="targetPoint"/>
          </mxGeometry>
        </mxCell>
        <mxCell id="2ZjtcMZqPL4KML54FWka-14" value="响应 HTML静态内容" style="endArrow=classic;html=1;exitX=0.033;exitY=0.657;exitDx=0;exitDy=0;exitPerimeter=0;" edge="1" parent="1" source="2ZjtcMZqPL4KML54FWka-6">
          <mxGeometry width="50" height="50" relative="1" as="geometry">
            <mxPoint x="360" y="150" as="sourcePoint"/>
            <mxPoint x="102" y="150" as="targetPoint"/>
          </mxGeometry>
        </mxCell>
        <mxCell id="2ZjtcMZqPL4KML54FWka-15" value="" style="edgeStyle=elbowEdgeStyle;elbow=horizontal;endArrow=classic;html=1;exitX=0;exitY=0.152;exitDx=0;exitDy=0;exitPerimeter=0;entryX=1;entryY=1;entryDx=0;entryDy=0;" edge="1" parent="1" source="2ZjtcMZqPL4KML54FWka-5" target="2ZjtcMZqPL4KML54FWka-16">
          <mxGeometry width="50" height="50" relative="1" as="geometry">
            <mxPoint x="66" y="112.5" as="sourcePoint"/>
            <mxPoint x="65" y="190" as="targetPoint"/>
            <Array as="points">
              <mxPoint x="20" y="160"/>
              <mxPoint x="30" y="170"/>
              <mxPoint x="26" y="107.5"/>
              <mxPoint x="106" y="222.5"/>
              <mxPoint x="146" y="132.5"/>
              <mxPoint x="106" y="82.5"/>
              <mxPoint x="76" y="62.5"/>
              <mxPoint x="106" y="72.5"/>
              <mxPoint x="116" y="132.5"/>
            </Array>
          </mxGeometry>
        </mxCell>
        <mxCell id="2ZjtcMZqPL4KML54FWka-16" value="渲染" style="text;html=1;strokeColor=none;fillColor=none;align=center;verticalAlign=middle;whiteSpace=wrap;rounded=0;" vertex="1" parent="1">
          <mxGeometry x="26" y="160" width="40" height="20" as="geometry"/>
        </mxCell>
        <mxCell id="2ZjtcMZqPL4KML54FWka-17" value="" style="edgeStyle=elbowEdgeStyle;elbow=horizontal;endArrow=classic;html=1;exitX=1;exitY=0;exitDx=0;exitDy=0;" edge="1" parent="1" source="2ZjtcMZqPL4KML54FWka-18">
          <mxGeometry width="50" height="50" relative="1" as="geometry">
            <mxPoint x="64" y="210" as="sourcePoint"/>
            <mxPoint x="64" y="260" as="targetPoint"/>
            <Array as="points">
              <mxPoint x="20" y="230"/>
              <mxPoint x="25" y="160.5"/>
              <mxPoint x="105" y="275.5"/>
              <mxPoint x="145" y="185.5"/>
              <mxPoint x="105" y="135.5"/>
              <mxPoint x="75" y="115.5"/>
              <mxPoint x="105" y="125.5"/>
              <mxPoint x="115" y="185.5"/>
            </Array>
          </mxGeometry>
        </mxCell>
        <mxCell id="2ZjtcMZqPL4KML54FWka-18" value="onload" style="text;html=1;strokeColor=none;fillColor=none;align=center;verticalAlign=middle;whiteSpace=wrap;rounded=0;" vertex="1" parent="1">
          <mxGeometry x="26" y="220" width="40" height="32" as="geometry"/>
        </mxCell>
        <mxCell id="2ZjtcMZqPL4KML54FWka-22" value="ajax请求" style="endArrow=classic;html=1;entryX=0.033;entryY=0.125;entryDx=0;entryDy=0;exitX=1.067;exitY=0.086;exitDx=0;exitDy=0;exitPerimeter=0;entryPerimeter=0;" edge="1" parent="1">
          <mxGeometry width="50" height="50" relative="1" as="geometry">
            <mxPoint x="98.00999999999999" y="259.41999999999996" as="sourcePoint"/>
            <mxPoint x="635.99" y="258" as="targetPoint"/>
          </mxGeometry>
        </mxCell>
        <mxCell id="2ZjtcMZqPL4KML54FWka-25" value="ajax响应数据" style="endArrow=classic;html=1;exitX=0;exitY=0.75;exitDx=0;exitDy=0;" edge="1" parent="1" source="2ZjtcMZqPL4KML54FWka-8">
          <mxGeometry width="50" height="50" relative="1" as="geometry">
            <mxPoint x="365" y="300" as="sourcePoint"/>
            <mxPoint x="102" y="300" as="targetPoint"/>
          </mxGeometry>
        </mxCell>
        <mxCell id="2ZjtcMZqPL4KML54FWka-26" value="" style="edgeStyle=elbowEdgeStyle;elbow=horizontal;endArrow=classic;html=1;" edge="1" parent="1">
          <mxGeometry width="50" height="50" relative="1" as="geometry">
            <mxPoint x="64" y="300" as="sourcePoint"/>
            <mxPoint x="64" y="340" as="targetPoint"/>
            <Array as="points">
              <mxPoint x="20" y="320"/>
              <mxPoint x="25" y="250.5"/>
              <mxPoint x="105" y="365.5"/>
              <mxPoint x="145" y="275.5"/>
              <mxPoint x="105" y="225.5"/>
              <mxPoint x="75" y="205.5"/>
              <mxPoint x="105" y="215.5"/>
              <mxPoint x="115" y="275.5"/>
            </Array>
          </mxGeometry>
        </mxCell>
        <mxCell id="2ZjtcMZqPL4KML54FWka-27" value="渲染" style="text;html=1;strokeColor=none;fillColor=none;align=center;verticalAlign=middle;whiteSpace=wrap;rounded=0;" vertex="1" parent="1">
          <mxGeometry x="25" y="310" width="40" height="20" as="geometry"/>
        </mxCell>
      </root>
    </mxGraphModel>
  </diagram>
</mxfile>
